<svg width="18" height="12" viewBox="0 0 18 12" fill="none" xmlns="http://www.w3.org/2000/svg">
<path fill-rule="evenodd" clip-rule="evenodd" d="M17.75 6.00006C17.75 5.8343 17.6842 5.67533 17.5669 5.55812C17.4497 5.44091 17.2908 5.37506 17.125 5.37506H2.38375L6.3175 1.44256C6.37561 1.38445 6.4217 1.31546 6.45315 1.23954C6.4846 1.16361 6.50079 1.08224 6.50079 1.00006C6.50079 0.917877 6.4846 0.836502 6.45315 0.760578C6.4217 0.684654 6.37561 0.615667 6.3175 0.557557C6.25939 0.499447 6.1904 0.453352 6.11448 0.421903C6.03855 0.390454 5.95718 0.374268 5.875 0.374268C5.79282 0.374268 5.71144 0.390454 5.63552 0.421903C5.5596 0.453352 5.49061 0.499447 5.4325 0.557557L0.4325 5.55756C0.374295 5.61561 0.328117 5.68458 0.296609 5.76052C0.265101 5.83645 0.248882 5.91785 0.248882 6.00006C0.248882 6.08227 0.265101 6.16367 0.296609 6.2396C0.328117 6.31553 0.374295 6.3845 0.4325 6.44256L5.4325 11.4426C5.49061 11.5007 5.5596 11.5468 5.63552 11.5782C5.71144 11.6097 5.79282 11.6258 5.875 11.6258C5.95718 11.6258 6.03855 11.6097 6.11448 11.5782C6.1904 11.5468 6.25939 11.5007 6.3175 11.4426C6.37561 11.3844 6.4217 11.3155 6.45315 11.2395C6.4846 11.1636 6.50079 11.0822 6.50079 11.0001C6.50079 10.9179 6.4846 10.8365 6.45315 10.7606C6.4217 10.6847 6.37561 10.6157 6.3175 10.5576L2.38375 6.62506H17.125C17.2908 6.62506 17.4497 6.55921 17.5669 6.442C17.6842 6.32479 17.75 6.16582 17.75 6.00006Z" fill="#3B2F17"/>
</svg>
