<svg width="16" height="12" viewBox="0 0 16 12" fill="none" xmlns="http://www.w3.org/2000/svg">
<path d="M14.1808 1.56575C15.0392 2.47742 15.5 3.49992 15.5 5.15742C15.5 8.07409 13.4525 10.6883 10.475 11.9808L9.73083 10.8324C12.51 9.32908 13.0533 7.37825 13.27 6.14825C12.8225 6.37992 12.2367 6.46075 11.6625 6.40742C10.1592 6.26825 8.97417 5.03409 8.97417 3.49992C8.97417 2.72637 9.28146 1.98451 9.82844 1.43752C10.3754 0.890543 11.1173 0.583252 11.8908 0.583252C12.785 0.583252 13.64 0.991585 14.1808 1.56575ZM5.8475 1.56575C6.70583 2.47742 7.16667 3.49992 7.16667 5.15742C7.16667 8.07409 5.11917 10.6883 2.14167 11.9808L1.3975 10.8324C4.17667 9.32908 4.72 7.37825 4.93667 6.14825C4.48917 6.37992 3.90333 6.46075 3.32917 6.40742C1.82583 6.26825 0.641666 5.03409 0.641666 3.49992C0.641666 2.72637 0.948957 1.98451 1.49594 1.43752C2.04292 0.890543 2.78478 0.583252 3.55833 0.583252C4.4525 0.583252 5.3075 0.991585 5.84833 1.56575H5.8475Z" fill="#3B2F17"/>
</svg>
